<?xml version="1.0" encoding="UTF-8"?>
<svg version="1.1" xmlns="http://www.w3.org/2000/svg" width="384" height="384">
<path d="M0 0 C1.1520754 -0.00768229 2.30415079 -0.01536458 3.49113756 -0.02327967 C5.3830325 -0.02068022 5.3830325 -0.02068022 7.31314754 -0.01802826 C8.67009806 -0.02319777 10.02704553 -0.02922471 11.3839888 -0.03603506 C15.11205946 -0.05215622 18.84005306 -0.05575314 22.56815445 -0.05723 C26.58948619 -0.06093449 30.61077809 -0.07603103 34.63208675 -0.08950043 C43.42569883 -0.11665622 52.21929266 -0.12871523 61.01293969 -0.13752174 C66.50587522 -0.14304928 71.99880372 -0.15152456 77.4917345 -0.16053009 C92.70562867 -0.18491561 107.9195172 -0.20551317 123.13343048 -0.21228027 C124.10704784 -0.21271941 125.08066521 -0.21315854 126.08378613 -0.21361098 C127.05971295 -0.21404753 128.03563977 -0.21448409 129.04114014 -0.21493387 C131.0186857 -0.2158208 132.99623126 -0.21671393 134.97377682 -0.21761322 C135.95470446 -0.21805608 136.9356321 -0.21849894 137.94628482 -0.21895522 C153.83266707 -0.22684736 169.71886562 -0.26174354 185.60517693 -0.30833226 C201.92277955 -0.35579868 218.24029008 -0.38068581 234.55796283 -0.38301611 C243.71673011 -0.3848476 252.87525814 -0.39630087 262.03395939 -0.43265533 C269.83477045 -0.46351094 277.63526835 -0.47366715 285.43612886 -0.45717913 C289.41348465 -0.4493842 293.39021033 -0.45113389 297.36748791 -0.47929382 C301.01546663 -0.50488499 304.66234554 -0.50228188 308.31032395 -0.4781124 C310.24084536 -0.47238558 312.17138678 -0.49598666 314.1017552 -0.52095652 C324.68061825 -0.40182246 333.90781793 3.23822029 341.73720455 10.49332428 C347.2406047 16.86938634 351.50606961 24.49148885 351.52740383 32.99830723 C351.53508612 34.15038262 351.54276841 35.30245802 351.5506835 36.48944479 C351.54895053 37.75070809 351.54721757 39.01197138 351.54543209 40.31145477 C351.5506016 41.66840529 351.55662854 43.02535276 351.56343889 44.38229603 C351.57956005 48.11036669 351.58315698 51.83836029 351.58463383 55.56646168 C351.58833832 59.58779341 351.60343486 63.60908532 351.61690426 67.63039398 C351.64406005 76.42400606 351.65611906 85.21759989 351.66492558 94.01124692 C351.67045311 99.50418245 351.67892839 104.99711095 351.68793392 110.49004173 C351.71231945 125.70393589 351.732917 140.91782443 351.7396841 156.13173771 C351.7403428 157.59216375 351.7403428 157.59216375 351.74101481 159.08209335 C351.74145136 160.05802018 351.74188792 161.033947 351.7423377 162.03944737 C351.74322463 164.01699293 351.74411776 165.99453849 351.74501705 167.97208405 C351.74568134 169.44347551 351.74568134 169.44347551 351.74635905 170.94459205 C351.75425119 186.8309743 351.78914737 202.71717284 351.8357361 218.60348416 C351.88320251 234.92108678 351.90808965 251.23859731 351.91041994 267.55627006 C351.91225143 276.71503734 351.9237047 285.87356537 351.96005917 295.03226662 C351.99091477 302.83307768 352.00107098 310.63357558 351.98458296 318.43443609 C351.97678803 322.41179187 351.97853772 326.38851756 352.00669765 330.36579514 C352.03228882 334.01377385 352.02968571 337.66065277 352.00551623 341.30863117 C351.99978942 343.23915259 352.02339049 345.16969401 352.04836035 347.10006243 C351.92922629 357.67892548 348.28918354 366.90612516 341.03407955 374.73551178 C334.65801749 380.23891193 327.03591498 384.50437684 318.5290966 384.52571106 C317.37702121 384.53339335 316.22494581 384.54107564 315.03795904 384.54899073 C313.1460641 384.54639128 313.1460641 384.54639128 311.21594906 384.54373932 C309.85899855 384.54890883 308.50205107 384.55493577 307.14510781 384.56174612 C303.41703714 384.57786728 299.68904354 384.5814642 295.96094215 384.58294106 C291.93961042 384.58664555 287.91831852 384.60174209 283.89700985 384.61521149 C275.10339777 384.64236728 266.30980394 384.65442628 257.51615691 384.6632328 C252.02322138 384.66876034 246.53029288 384.67723562 241.0373621 384.68624115 C225.82346794 384.71062667 210.6095794 384.73122422 195.39566612 384.73799133 C194.42204876 384.73843047 193.4484314 384.7388696 192.44531048 384.73932204 C191.46938365 384.73975859 190.49345683 384.74019515 189.48795646 384.74064493 C187.5104109 384.74153186 185.53286534 384.74242499 183.55531979 384.74332428 C182.57439214 384.74376714 181.5934645 384.74421 180.58281178 384.74466628 C164.69642954 384.75255842 148.81023099 384.7874546 132.92391967 384.83404332 C116.60631706 384.88150974 100.28880653 384.90639687 83.97113377 384.90872717 C74.81236649 384.91055866 65.65383847 384.92201193 56.49513721 384.95836639 C48.69432615 384.989222 40.89382825 384.99937821 33.09296774 384.98289019 C29.11561196 384.97509526 25.13888627 384.97684495 21.1616087 385.00500488 C17.51362998 385.03059605 13.86675107 385.02799294 10.21877266 385.00382346 C8.28825124 384.99809664 6.35770982 385.02169772 4.4273414 385.04666758 C-6.15152165 384.92753352 -15.37872133 381.28749077 -23.20810795 374.03238678 C-28.71150809 367.65632472 -32.97697301 360.03422221 -32.99830723 351.52740383 C-33.00983066 349.79929074 -33.00983066 349.79929074 -33.02158689 348.03626627 C-33.01985393 346.77500297 -33.01812097 345.51373968 -33.01633549 344.21425629 C-33.021505 342.85730577 -33.02753194 341.5003583 -33.03434229 340.14341503 C-33.05046345 336.41534437 -33.05406037 332.68735077 -33.05553722 328.95924938 C-33.05924172 324.93791765 -33.07433826 320.91662574 -33.08780766 316.89531708 C-33.11496345 308.101705 -33.12702245 299.30811117 -33.13582897 290.51446414 C-33.14135651 285.02152861 -33.14983179 279.52860011 -33.15883732 274.03566933 C-33.18322284 258.82177517 -33.20382039 243.60788663 -33.2105875 228.39397335 C-33.21102663 227.42035599 -33.21146577 226.44673862 -33.21191821 225.44361771 C-33.21235476 224.46769088 -33.21279132 223.49176406 -33.2132411 222.48626369 C-33.21412803 220.50871813 -33.21502115 218.53117257 -33.21592045 216.55362701 C-33.21636331 215.57269937 -33.21680617 214.59177173 -33.21726245 213.58111901 C-33.22515459 197.69473676 -33.26005076 181.80853822 -33.30663949 165.9222269 C-33.35410591 149.60462428 -33.37899304 133.28711375 -33.38132334 116.969441 C-33.38315483 107.81067372 -33.3946081 98.65214569 -33.43096256 89.49344444 C-33.46181817 81.69263338 -33.47197438 73.89213548 -33.45548636 66.09127497 C-33.44769142 62.11391919 -33.44944112 58.1371935 -33.47760105 54.15991592 C-33.50319222 50.51193721 -33.5005891 46.86505829 -33.47641963 43.21707989 C-33.47069281 41.28655847 -33.49429389 39.35601705 -33.51926374 37.42564863 C-33.40012969 26.84678558 -29.76008693 17.6195859 -22.50498295 9.79019928 C-16.12892089 4.28679913 -8.50681838 0.02133422 0 0 Z M19.2645483 122.26285553 C19.2645483 168.46285553 19.2645483 214.66285553 19.2645483 262.26285553 C55.24945422 265.19703597 55.24945422 265.19703597 87.29970455 251.37613678 C94.92021808 243.14080475 98.47979085 233.85614369 98.57094479 222.60611725 C98.58343006 221.50936928 98.58343006 221.50936928 98.59616756 220.39046478 C98.62011258 217.99110206 98.62902231 215.5920123 98.63564205 213.19254303 C98.64462307 211.5073311 98.65374515 209.82211992 98.66300106 208.13690948 C98.67945368 204.60823387 98.68718384 201.07965267 98.69008541 197.55094147 C98.69545264 193.06241972 98.73307941 188.57480498 98.77882957 184.08653831 C98.80880132 180.60489541 98.81581336 177.12346516 98.81681156 173.64170456 C98.82097731 171.98891947 98.83326226 170.33613156 98.85432911 168.68347549 C99.01800564 154.72832625 96.83637807 143.27898912 87.36220455 132.35269928 C70.0794188 115.13428145 39.8676956 122.26285553 19.2645483 122.26285553 Z M119.2645483 127.26285553 C115.04353354 133.42699261 114.68869613 139.10995621 114.74697018 146.4171524 C114.7399609 147.50762375 114.73295162 148.59809509 114.72572994 149.72161102 C114.70819574 153.30853867 114.71975721 156.89467054 114.7332983 160.48160553 C114.73060209 162.98449606 114.7267186 165.48738557 114.72170162 167.99027252 C114.71581276 173.22883906 114.72396564 178.46720058 114.74306393 183.70572662 C114.76482958 189.74529068 114.75777692 195.78431444 114.7357583 201.82386541 C114.71535584 207.6555656 114.7175957 213.48706194 114.72928524 219.31877899 C114.73194804 221.79065273 114.72869857 224.26254033 114.71936703 226.73439789 C114.7091754 230.19281967 114.7247408 233.65021318 114.74697018 237.10855865 C114.73887325 238.12386154 114.73077633 239.13916443 114.72243404 240.18523407 C114.81091966 247.63979176 116.51853292 252.78456938 121.1395483 258.63785553 C125.36122984 261.86620023 129.88452392 262.51344388 135.08632565 262.48990631 C136.20703457 262.48975525 137.32774349 262.48960419 138.48241329 262.48944855 C139.67637722 262.47912598 140.87034115 262.46880341 142.1004858 262.45816803 C143.95221905 262.45392319 143.95221905 262.45392319 145.84136105 262.44959259 C149.7741898 262.43842075 153.70678868 262.41332117 157.6395483 262.38785553 C160.31011789 262.37669378 162.98068531 262.36869672 165.65126705 262.36051178 C172.18911569 262.33849115 178.72679305 262.30398145 185.2645483 262.26285553 C185.2645483 254.34285553 185.2645483 246.42285553 185.2645483 238.26285553 C170.0845483 238.26285553 154.9045483 238.26285553 139.2645483 238.26285553 C139.2645483 226.71285553 139.2645483 215.16285553 139.2645483 203.26285553 C148.5045483 203.26285553 157.7445483 203.26285553 167.2645483 203.26285553 C167.2645483 195.67285553 167.2645483 188.08285553 167.2645483 180.26285553 C158.0245483 180.26285553 148.7845483 180.26285553 139.2645483 180.26285553 C139.2645483 168.71285553 139.2645483 157.16285553 139.2645483 145.26285553 C154.4445483 145.26285553 169.6245483 145.26285553 185.2645483 145.26285553 C185.2645483 137.67285553 185.2645483 130.08285553 185.2645483 122.26285553 C177.84052146 122.14951427 170.416974 122.05794591 162.99226284 122.00379467 C159.54395849 121.97779347 156.09628101 121.94257364 152.64833736 121.88565826 C148.67673624 121.82051544 144.70538147 121.79659648 140.7332983 121.77457428 C139.50590939 121.74876785 138.27852047 121.72296143 137.01393795 121.69637299 C130.20145225 121.69415623 124.0658743 121.91225284 119.2645483 127.26285553 Z M202.2645483 122.26285553 C203.59742903 128.26081882 204.98337255 134.19904632 206.54970455 140.13394928 C206.76646847 140.96071167 206.98323238 141.78747406 207.2065649 142.63928986 C207.91168356 145.32676399 208.61927811 148.01357859 209.3270483 150.70035553 C209.82380979 152.59054785 210.32047191 154.4807663 210.81703854 156.37100983 C212.06507325 161.11951327 213.31545127 165.86739582 214.5667944 170.61502838 C215.21135002 173.06097942 215.85527859 175.50709435 216.4989233 177.95328522 C218.50378494 185.57075436 220.51777258 193.18570551 222.54622555 200.79692841 C223.7835377 205.44282307 225.00859998 210.0918249 226.22891903 214.74221039 C227.12130022 218.13544964 228.02123091 221.52665874 228.92272091 224.9174881 C229.35314161 226.54251144 229.78057492 228.1683295 230.20476437 229.79499054 C233.72906122 244.45112691 233.72906122 244.45112691 242.2020483 256.63785553 C242.85044674 257.2849649 243.49884518 257.93207428 244.16689205 258.59879303 C247.4587482 261.21020964 250.43963547 262.15390478 254.5770483 262.70035553 C260.88844433 261.95154583 265.33446011 258.71197674 269.4520483 253.95035553 C272.00070581 250.18230914 273.3840016 246.2718485 274.6786108 241.94937897 C274.8934663 241.24611858 275.1083218 240.5428582 275.32968807 239.8182869 C277.3473593 233.13946266 279.16323457 226.41022733 280.91567135 219.65744019 C281.87182397 215.97374198 282.84101205 212.29345763 283.80751705 208.6124649 C284.00811733 207.84694683 284.20871761 207.08142876 284.41539669 206.29271317 C286.45783571 198.50504281 288.5443521 190.72939747 290.63680172 182.95503998 C291.26290377 180.62834189 291.88814415 178.30141402 292.51308346 175.97440338 C294.19553246 169.70988114 295.87830251 163.44544886 297.56581783 157.18228912 C298.6225509 153.25989268 299.67652094 149.33676293 300.72865963 145.41313171 C301.12313122 143.94411833 301.51861557 142.47537647 301.91518307 141.00692749 C302.46264726 138.9793244 303.00657291 136.95080247 303.54970455 134.92203522 C303.85787106 133.77660248 304.16603756 132.63116974 304.48354244 131.45102692 C305.22583432 128.42089124 305.75166774 125.34013891 306.2645483 122.26285553 C297.6845483 122.26285553 289.1045483 122.26285553 280.2645483 122.26285553 C275.16010193 139.5911077 270.67531097 157.05455941 266.22777462 174.55970001 C264.70679685 180.54148189 263.16824537 186.51854167 261.62001705 192.49332428 C261.19853516 194.1220642 260.77706679 195.75080762 260.35561275 197.37955475 C259.75139444 199.71420547 259.1464918 202.04866672 258.53929806 204.38254547 C257.98462993 206.51527653 257.43287433 208.64874137 256.8817358 210.78238678 C256.56833248 211.98999664 256.25492916 213.19760651 255.93202877 214.44181061 C255.18779823 217.10407683 255.18779823 217.10407683 255.2645483 219.26285553 C254.6045483 219.26285553 253.9445483 219.26285553 253.2645483 219.26285553 C253.17818111 218.67762115 253.09181393 218.09238678 253.00282955 217.48941803 C252.0592746 211.72421072 250.73967065 206.12785388 249.1395483 200.51285553 C246.80602107 192.31500371 244.63533792 184.08064564 242.5145483 175.82535553 C242.34871243 175.18083435 242.18287655 174.53631317 242.01201534 173.87226105 C240.13807173 166.58848035 238.27410424 159.30215969 236.4133215 152.01500702 C235.58707133 148.78075396 234.759195 145.54691814 233.93117428 142.31311798 C233.33442277 139.97919738 232.74035823 137.64460343 232.14638424 135.30997467 C231.78095033 133.88147564 231.41539665 132.45300724 231.04970455 131.02457428 C230.72880856 129.76604645 230.40791256 128.50751862 230.07729244 127.21085358 C229.39342709 124.35943802 229.39342709 124.35943802 228.2645483 122.26285553 C219.6845483 122.26285553 211.1045483 122.26285553 202.2645483 122.26285553 Z " fill="#FEFEFE" transform="translate(32.73545169830322,-0.26285552978515625)"/>
<path d="M0 0 C21.60645161 0 21.60645161 0 27 4 C31.50455379 8.61716763 32.12478072 12.18793945 32.16113281 18.48754883 C32.16858017 19.46861351 32.16858017 19.46861351 32.17617798 20.46949768 C32.19077549 22.63201961 32.19759797 24.79446815 32.203125 26.95703125 C32.20887897 28.46294659 32.21463668 29.96886191 32.22039795 31.47477722 C32.23090145 34.63300924 32.23674819 37.79121586 32.24023438 40.94946289 C32.24571408 44.98790692 32.26973337 49.02601293 32.29820633 53.06435108 C32.31687105 56.1759691 32.32204037 59.28750638 32.32357025 62.39917564 C32.32658928 63.88746677 32.33459246 65.37575672 32.34775543 66.86399269 C32.36489499 68.95100907 32.36291691 71.03720852 32.35644531 73.12426758 C32.36191376 74.9027282 32.36191376 74.9027282 32.36749268 76.71711731 C31.81651885 81.63907235 30.19081863 84.9007828 26.5625 88.25 C17.15140901 94.67708653 15.2466838 92 0 92 C0 61.64 0 31.28 0 0 Z " fill="#FEFEFE" transform="translate(77,146)"/>
</svg>
